<?xml version="1.0" encoding="UTF-8" standalone="no"?>
<svg
   xmlns:dc="http://purl.org/dc/elements/1.1/"
   xmlns:cc="http://creativecommons.org/ns#"
   xmlns:rdf="http://www.w3.org/1999/02/22-rdf-syntax-ns#"
   xmlns:svg="http://www.w3.org/2000/svg"
   xmlns="http://www.w3.org/2000/svg"
   xmlns:sodipodi="http://sodipodi.sourceforge.net/DTD/sodipodi-0.dtd"
   xmlns:inkscape="http://www.inkscape.org/namespaces/inkscape"
   viewBox="0 0 512 512"
   version="1.1"
   id="svg4"
   sodipodi:docname="phone.svg"
   inkscape:version="0.92.3 (2405546, 2018-03-11)">
  <metadata
     id="metadata10">
    <rdf:RDF>
      <cc:Work
         rdf:about="">
        <dc:format>image/svg+xml</dc:format>
        <dc:type
           rdf:resource="http://purl.org/dc/dcmitype/StillImage" />
        <dc:title></dc:title>
      </cc:Work>
    </rdf:RDF>
  </metadata>
  <defs
     id="defs8" />
  <sodipodi:namedview
     pagecolor="#ffffff"
     bordercolor="#666666"
     borderopacity="1"
     objecttolerance="10"
     gridtolerance="10"
     guidetolerance="10"
     inkscape:pageopacity="0"
     inkscape:pageshadow="2"
     inkscape:window-width="1920"
     inkscape:window-height="1018"
     id="namedview6"
     showgrid="false"
     inkscape:zoom="0.4609375"
     inkscape:cx="256"
     inkscape:cy="256"
     inkscape:window-x="-8"
     inkscape:window-y="-8"
     inkscape:window-maximized="1"
     inkscape:current-layer="svg4" />
  <path
     d="M436.9 364.8c-14.7-14.7-50-36.8-67.4-45.1-20.2-9.7-27.6-9.5-41.9.8-11.9 8.6-19.6 16.6-33.3 13.6-13.7-2.9-40.7-23.4-66.9-49.5-26.2-26.2-46.6-53.2-49.5-66.9-2.9-13.8 5.1-21.4 13.6-33.3 10.3-14.3 10.6-21.7.8-41.9C184 125 162 89.8 147.2 75.1c-14.7-14.7-18-11.5-26.1-8.6 0 0-12 4.8-23.9 12.7-14.7 9.8-22.9 18-28.7 30.3-5.7 12.3-12.3 35.2 21.3 95 27.1 48.3 53.7 84.9 93.2 124.3l.1.1.1.1c39.5 39.5 76 66.1 124.3 93.2 59.8 33.6 82.7 27 95 21.3 12.3-5.7 20.5-13.9 30.3-28.7 7.9-11.9 12.7-23.9 12.7-23.9 2.9-8.1 6.2-11.4-8.6-26.1z"
     id="path2"
     style="fill:#f7444e;fill-opacity:1" />
</svg>
